<svg width="200" height="200" xmlns="http://www.w3.org/2000/svg">
  <defs>
    <linearGradient id="grad" x1="0%" y1="0%" x2="100%" y2="100%">
      <stop offset="0%" style="stop-color:#6366f1;stop-opacity:1" />
      <stop offset="100%" style="stop-color:#a855f7;stop-opacity:1" />
    </linearGradient>
  </defs>
  <!-- Background Shape -->
  <rect x="0" y="0" width="200" height="200" rx="40" ry="40" fill="url(#grad)" />
  
  <!-- Buildings -->
  <rect x="50" y="60" width="30" height="80" rx="4" fill="white" opacity="0.9" />
  <rect x="85" y="40" width="35" height="100" rx="4" fill="white" opacity="0.9" />
  <rect x="125" y="70" width="25" height="70" rx="4" fill="white" opacity="0.9" />
  
  <!-- Windows -->
  <rect x="56" y="70" width="8" height="8" rx="1" fill="#6366f1" opacity="0.3" />
  <rect x="56" y="85" width="8" height="8" rx="1" fill="#6366f1" opacity="0.3" />
  
  <rect x="91" y="50" width="10" height="10" rx="1" fill="#6366f1" opacity="0.3" />
  <rect x="91" y="65" width="10" height="10" rx="1" fill="#6366f1" opacity="0.3" />
  <rect x="91" y="80" width="10" height="10" rx="1" fill="#6366f1" opacity="0.3" />

  <!-- Hands Embracing (Stylized Curves) -->
  <path d="M 30 140 Q 100 200 170 140" stroke="white" stroke-width="12" fill="none" stroke-linecap="round" />
  <path d="M 20 120 Q 20 160 50 170" stroke="white" stroke-width="8" fill="none" stroke-linecap="round" opacity="0.6"/>
  <path d="M 180 120 Q 180 160 150 170" stroke="white" stroke-width="8" fill="none" stroke-linecap="round" opacity="0.6"/>

</svg>
